<?xml version="1.0" encoding="UTF-8"?>
<svg id="_图层_1" data-name="图层_1" xmlns="http://www.w3.org/2000/svg" width="73" height="61" version="1.1" viewBox="0 0 73 61">
  <!-- Generator: Adobe Illustrator 29.0.1, SVG Export Plug-In . SVG Version: 2.1.0 Build 192)  -->
  <defs>
    <style>
      .st0 {
        fill: #12194b;
        fill-rule: evenodd;
      }
    </style>
  </defs>
  <path class="st0" d="M33.7,32.2c-.4.3-.7.4-1.1.7-.4-.6-.7-1.2-1-1.8-2.4-4.1-4.8-8.3-7.1-12.4-.5-1-1.1-1.3-2.2-1.3-5,0-10,0-15,0h-1.4v-1.2c.1,0,.3,0,.4,0,5.2,0,10.4,0,15.6,0,2.2,0,1.6.3,2.7-1.5,2.5-4.2,4.9-8.5,7.4-12.7.2-.4.5-.8.7-1.2.4.2.7.4,1.1.6-3,5.1-5.9,10.3-8.9,15.5,3,5.1,5.9,10.3,8.9,15.5ZM23.9,16.1c-.2.3-.4.5-.4.6,0,.2.3.3.5.4.2-.2.4-.3.4-.5,0-.2-.3-.3-.5-.6Z"/>
  <path class="st0" d="M9.3,44.4c-3-5.2-6-10.3-8.9-15.4.4-.2.7-.4,1.1-.7.2.4.4.7.6,1.1,2.6,4.4,5.1,8.8,7.6,13.3.5.8,1,1.2,2,1.2,5,0,10,0,15,0h1.6c0,.4,0,.8,0,1.2-.2,0-.4,0-.6,0h-14.7c-.3,0-.7,0-1,0-1.1-.2-1.8.3-2.4,1.3-2.3,4.2-4.7,8.3-7.1,12.4-.3.6-.7,1.2-1,1.8-.4-.2-.7-.4-1.1-.7,3-5.1,5.9-10.2,8.9-15.4ZM10.1,45c.2-.3.5-.4.5-.6,0-.2-.3-.4-.4-.4s-.4.2-.5.4c0,.1.2.3.4.6Z"/>
  <path class="st0" d="M48.4,16.7c-3-5.2-5.9-10.3-8.9-15.5.4-.2.7-.4,1.1-.7.3.4.5.9.8,1.3,2.5,4.4,5.1,8.8,7.6,13.2.4.7.9,1,1.8,1,5.1,0,10.1,0,15.2,0h1.4v1.3h-1.5c-5,0-10.1,0-15.1,0-.9,0-1.4.3-1.9,1.1-2.5,4.5-5.1,8.9-7.7,13.4-.2.3-.4.6-.6,1-.4-.2-.7-.4-1.1-.6,3-5.2,5.9-10.3,8.9-15.5ZM49.7,16.6c-.3-.2-.5-.4-.7-.4-.2,0-.3.3-.4.5.2.2.4.4.5.4s.3-.3.6-.5Z"/>
  <path class="st0" d="M44.8,45.1v-1.3h1.5c4.9,0,9.9,0,14.8,0,1.1,0,1.7-.4,2.2-1.3,2.5-4.4,5-8.8,7.6-13.2.2-.3.4-.6.6-1,.4.2.7.4,1.1.6-.2.4-.4.8-.6,1.2-2.5,4.4-5,8.8-7.6,13.2-.5.9-.5,1.5,0,2.4,2.6,4.3,5,8.7,7.6,13,.2.4.4.7.7,1.2-.3.2-.7.4-1,.7-.2-.4-.5-.8-.7-1.2-2.5-4.3-5-8.6-7.4-13-.5-1-1.2-1.4-2.3-1.4-5,0-10,0-15,0h-1.4ZM63.6,44.5c-.3-.2-.4-.5-.6-.5s-.3.3-.5.4c.1.2.3.4.4.5.2,0,.4-.2.6-.4Z"/>
</svg>